<?xml version="1.0" encoding="UTF-8"?>
<svg version="1.1" fill="#080039" viewBox="0 0 2048 2048" width="1500" height="1500" xmlns="http://www.w3.org/2000/svg">
<path transform="translate(212,553)" d="m0 0 6 1 37 16 29 13 41 18 124 55 167 74 38 17 30 13 40 18 41 18 40 18 30 13 31 14 25 11 36 16 12 6 1 895-6-1-24-11-30-13-40-18-41-18-133-59-167-74-81-36-41-18-40-18-25-11-43-19-16-8-14-11-9-10-8-13-6-14-3-14z"/>
<path transform="translate(1476,1066)" d="m0 0h37l32 3 25 4 32 8 24 8 22 9 29 14 22 13 16 11 16 12 11 9 10 9 8 7 16 16 7 8 11 13 9 12 14 20 10 17 12 22 12 27 9 25 7 25 6 29 3 23 2 27v24l-3 39-5 29-8 32-10 29-13 30-9 17-12 20-8 12-10 14-13 16-10 11-1 2h-2l-2 4-17 17-8 7-14 12-14 10-10 7-17 11-22 12-27 13-27 10-27 8-34 7-32 4-16 1h-30l-25-2-28-4-27-6-21-6-25-9-25-11-23-12-18-11-16-11-13-10-10-8-24-22-8-8-7-8-11-12-10-13-13-18-13-21-8-14-11-23-11-28-8-26-7-30-4-26-2-21v-48l3-29 5-28 7-28 9-27 11-26 8-16 9-17 14-22 10-14 8-10 5-7h2l2-4 13-14 1-2h2v-2h2v-2h2v-2h2v-2l8-7 13-12 14-11 18-13 19-12 16-9 15-8 28-12 30-10 28-7 29-5 18-2zm180 257-11 4-11 8-183 183-74-74-12-9-10-4-4-1h-12l-12 3-9 6-8 8-6 12-2 10 1 14 7 14 9 10 103 103 11 7 10 3h16l11-4 10-7 216-216 6-9 3-7 1-5v-15l-4-11-6-9-7-7-10-5-7-2z"/>
<path transform="translate(1748,552)" d="m0 0 2 1v504l-5-1-16-10-22-12-27-13-25-10-33-11-33-8-36-6-18-2-15-1h-55l-32 3-36 6-36 9-30 10-29 12-25 12-18 10-18 11-12 8-14 10-14 11-13 11-8 7-12 11-19 19-7 8-12 14-11 14-13 19-12 18-12 21-12 23-9 21-9 23-9 28-7 28-5 27-3 26-2 42-2-4-1-41v-524l3-4 79-35 43-19 38-17 88-39 203-90 41-18 38-17 41-18 29-13 41-18 45-20 25-11z"/>
<path transform="translate(1360,343)" d="m0 0 6 1 26 11 15 7 27 12 41 18 99 44 41 18 31 14 30 13 10 5v2l-19 9-29 13-115 51-113 50-41 18-99 44-212 94-41 18-27 12-6 3-7-1-24-11-34-15-122-54-79-35-45-20-15-6v-3l17-8 74-33 36-16 41-18 29-13 41-18 40-18 41-18 81-36 88-39 70-31 115-51 25-11z"/>
<path transform="translate(972,182)" d="m0 0h19l15 3 20 8 40 18 30 13 40 18 25 11 72 32 20 9 4 4-11 5-70 31-88 39-37 16-15 7-88 39-79 35-41 18-29 13-72 32-30 13-40 18-41 18-45 20-19 8-6-2-42-19-30-13-74-33-41-18-40-18-41-18-2-1v-2l207-92 79-35 41-18 40-18 52-23 41-18 29-13 41-18 40-18 30-13 40-18 25-11 15-6z"/>
<path transform="translate(1025,1464)" d="m0 0h1l2 37 4 31 6 29 8 29 11 31 10 23 12 25 10 18 10 16 8 12 8 11-1 4-29 13-41 18-17 8h-3l-1-3v-257l1-36z"/>
</svg>
